<?xml version="1.0" encoding="UTF-8"?>
<!DOCTYPE svg PUBLIC "-//W3C//DTD SVG 1.1//EN" "http://www.w3.org/Graphics/SVG/1.1/DTD/svg11.dtd">
<svg xmlns="http://www.w3.org/2000/svg" version="1.1" width="1024px" height="1024px" style="shape-rendering:geometricPrecision; text-rendering:geometricPrecision; image-rendering:optimizeQuality; fill-rule:evenodd; clip-rule:evenodd" xmlns:xlink="http://www.w3.org/1999/xlink">
<g><path style="opacity:1" fill="#f9faf9" d="M 835.5,22.5 C 857.359,21.5243 866.859,31.8577 864,53.5C 861.921,59.2469 858.088,63.4136 852.5,66C 842.999,68.5778 833.332,70.2445 823.5,71C 802.095,77.9403 785.261,90.7736 773,109.5C 778.7,69.3675 799.533,40.3675 835.5,22.5 Z"/></g>
<g><path style="opacity:1" fill="#f9faf9" d="M 850.5,106.5 C 874.417,104.695 890.25,115.028 898,137.5C 900.464,159.342 891.297,173.508 870.5,180C 864.833,180.667 859.167,180.667 853.5,180C 819.398,172.085 787.065,176.751 756.5,194C 743.537,201.732 731.37,210.565 720,220.5C 734.227,187.246 755.727,159.412 784.5,137C 804.681,122.741 826.681,112.574 850.5,106.5 Z"/></g>
<g><path style="opacity:1" fill="#f9faf9" d="M 147.5,251.5 C 374.833,251.5 602.167,251.5 829.5,251.5C 806.499,457.512 783.332,663.512 760,869.5C 753.996,892.169 739.496,906.002 716.5,911C 569.833,911.667 423.167,911.667 276.5,911C 253.521,906.021 239.021,892.187 233,869.5C 204.359,663.51 175.859,457.51 147.5,251.5 Z M 185.5,286.5 C 388.167,286.5 590.833,286.5 793.5,286.5C 775.038,450.492 756.538,614.492 738,778.5C 730.924,807.244 712.757,823.744 683.5,828C 621.5,828.167 559.5,828.333 497.5,828.5C 432.81,828.652 368.143,828.152 303.5,827C 275.108,820.608 258.274,803.108 253,774.5C 230.502,611.523 208.002,448.856 185.5,286.5 Z M 352.5,572.5 C 366.962,570.317 378.129,575.317 386,587.5C 393.809,604.152 390.643,618.319 376.5,630C 360.425,637.964 346.258,635.464 334,622.5C 322.583,599.042 328.749,582.375 352.5,572.5 Z M 432.5,638.5 C 449.755,638.686 457.588,647.353 456,664.5C 453.271,673.628 447.105,678.628 437.5,679.5C 425.092,678.259 418.092,671.426 416.5,659C 417.584,648.759 422.917,641.926 432.5,638.5 Z M 583.5,664.5 C 595.962,665.806 601.795,672.806 601,685.5C 597.337,694.916 590.504,698.416 580.5,696C 570.846,691.178 568.013,683.678 572,673.5C 574.683,668.922 578.517,665.922 583.5,664.5 Z M 628.5,702.5 C 649.142,702.642 656.642,712.642 651,732.5C 641.746,743.446 631.246,744.946 619.5,737C 612.704,728.726 611.871,719.893 617,710.5C 620.482,707.161 624.315,704.494 628.5,702.5 Z M 392.5,704.5 C 404.337,707.842 407.837,715.175 403,726.5C 397.221,732.164 390.721,732.997 383.5,729C 376.666,721.337 377,714.004 384.5,707C 387.251,706.057 389.917,705.224 392.5,704.5 Z"/></g>
<g><path style="opacity:1" fill="#f9faf9" d="M 635.5,319.5 C 660.667,318.523 670.167,330.189 664,354.5C 650.776,370.985 636.776,371.652 622,356.5C 614.07,339.684 618.57,327.351 635.5,319.5 Z"/></g>
<g><path style="opacity:1" fill="#f9faf9" d="M 340.5,337.5 C 358.278,338.11 368.278,347.276 370.5,365C 369.068,380.932 360.401,389.766 344.5,391.5C 332.667,390.834 324.167,385.168 319,374.5C 314.887,355.372 322.054,343.038 340.5,337.5 Z"/></g>
<g><path style="opacity:1" fill="#f9faf9" d="M 533.5,360.5 C 549.164,361.172 554.331,368.839 549,383.5C 541.654,391.126 533.987,391.46 526,384.5C 519.615,373.624 522.115,365.624 533.5,360.5 Z"/></g>
<g><path style="opacity:1" fill="#f9faf9" d="M 693.5,374.5 C 721.094,377.916 739.261,392.916 748,419.5C 749.079,425.129 749.912,430.795 750.5,436.5C 737.954,543.826 725.454,651.159 713,758.5C 710.396,780.103 698.563,793.603 677.5,799C 556.5,799.667 435.5,799.667 314.5,799C 293.829,794.327 281.662,781.493 278,760.5C 266.441,674.382 254.775,588.049 243,501.5C 266.474,481.862 293.641,471.862 324.5,471.5C 340.464,471.62 356.131,473.787 371.5,478C 382.823,481.993 394.157,485.993 405.5,490C 430.136,501.65 454.803,513.317 479.5,525C 498.746,533.479 518.746,539.479 539.5,543C 562.851,545.876 583.351,539.709 601,524.5C 616.974,504.452 617.974,483.785 604,462.5C 591.624,448.28 576.457,444.114 558.5,450C 550.359,454.224 543.693,460.057 538.5,467.5C 530.524,444.939 535.857,426.106 554.5,411C 574.005,400.447 593.005,401.447 611.5,414C 625.084,424.32 634.917,437.487 641,453.5C 646.941,462.35 654.441,463.85 663.5,458C 669.177,450.063 670.01,441.563 666,432.5C 651.618,413.13 653.785,395.963 672.5,381C 679.216,377.503 686.216,375.336 693.5,374.5 Z M 352.5,572.5 C 328.749,582.375 322.583,599.042 334,622.5C 346.258,635.464 360.425,637.964 376.5,630C 390.643,618.319 393.809,604.152 386,587.5C 378.129,575.317 366.962,570.317 352.5,572.5 Z M 432.5,638.5 C 422.917,641.926 417.584,648.759 416.5,659C 418.092,671.426 425.092,678.259 437.5,679.5C 447.105,678.628 453.271,673.628 456,664.5C 457.588,647.353 449.755,638.686 432.5,638.5 Z M 583.5,664.5 C 578.517,665.922 574.683,668.922 572,673.5C 568.013,683.678 570.846,691.178 580.5,696C 590.504,698.416 597.337,694.916 601,685.5C 601.795,672.806 595.962,665.806 583.5,664.5 Z M 628.5,702.5 C 624.315,704.494 620.482,707.161 617,710.5C 611.871,719.893 612.704,728.726 619.5,737C 631.246,744.946 641.746,743.446 651,732.5C 656.642,712.642 649.142,702.642 628.5,702.5 Z M 392.5,704.5 C 389.917,705.224 387.251,706.057 384.5,707C 377,714.004 376.666,721.337 383.5,729C 390.721,732.997 397.221,732.164 403,726.5C 407.837,715.175 404.337,707.842 392.5,704.5 Z"/></g>
<g><path style="opacity:1" fill="#f9faf9" d="M 284.5,403.5 C 298.698,403.862 303.865,410.862 300,424.5C 294.684,431.387 288.184,432.887 280.5,429C 274.452,423.644 272.952,417.144 276,409.5C 278.671,407.098 281.505,405.098 284.5,403.5 Z"/></g>
<g><path style="opacity:1" fill="#f9faf9" d="M 384.5,403.5 C 400.81,402.642 407.976,410.309 406,426.5C 400.338,438.24 391.505,441.406 379.5,436C 371.235,429.302 369.402,421.136 374,411.5C 376.975,407.952 380.475,405.286 384.5,403.5 Z"/></g>
</svg>
